<svg id="svg" version="1.1" xmlns="http://www.w3.org/2000/svg" xmlns:xlink="http://www.w3.org/1999/xlink" width="400" height="400" viewBox="0, 0, 400,400"><g id="svgg"><path id="path0" d="M45.600 0.408 C 44.390 0.574,42.906 0.808,42.303 0.928 C 40.320 1.322,34.839 3.224,32.156 4.449 C 31.252 4.862,30.307 5.200,30.056 5.200 C 29.805 5.200,29.600 5.362,29.600 5.561 C 29.600 5.759,29.082 6.102,28.449 6.323 C 27.815 6.544,26.960 7.013,26.549 7.365 C 26.137 7.718,25.659 7.999,25.486 7.989 C 25.313 7.979,24.914 8.203,24.600 8.486 C 23.223 9.724,22.799 10.012,22.788 9.716 C 22.781 9.542,22.592 9.715,22.368 10.100 C 22.144 10.485,21.794 10.800,21.591 10.800 C 20.650 10.800,10.800 20.681,10.800 21.625 C 10.800 21.845,10.546 22.122,10.237 22.241 C 9.927 22.360,9.455 22.985,9.188 23.629 C 8.921 24.273,8.534 24.800,8.328 24.800 C 8.122 24.800,8.047 24.953,8.163 25.139 C 8.278 25.326,8.008 25.870,7.562 26.348 C 7.117 26.827,6.565 27.754,6.337 28.409 C 6.109 29.064,5.759 29.600,5.561 29.600 C 5.362 29.600,5.200 29.828,5.200 30.106 C 5.200 30.384,4.840 31.284,4.400 32.104 C 3.960 32.925,3.599 33.823,3.598 34.099 C 3.596 34.374,3.333 35.103,3.012 35.717 C 2.692 36.331,2.310 37.501,2.163 38.317 C 2.016 39.133,1.719 40.023,1.503 40.295 C 1.287 40.567,1.219 41.071,1.351 41.416 C 1.483 41.760,1.427 41.941,1.228 41.817 C 0.299 41.243,0.200 56.493,0.200 200.000 C 0.200 343.507,0.299 358.757,1.228 358.183 C 1.427 358.059,1.483 358.240,1.351 358.584 C 1.219 358.929,1.287 359.433,1.503 359.705 C 1.719 359.977,2.016 360.867,2.163 361.683 C 2.310 362.499,2.692 363.669,3.012 364.283 C 3.333 364.897,3.596 365.626,3.598 365.901 C 3.599 366.177,3.960 367.075,4.400 367.896 C 4.840 368.716,5.200 369.616,5.200 369.894 C 5.200 370.172,5.362 370.400,5.561 370.400 C 5.759 370.400,6.109 370.936,6.337 371.591 C 6.565 372.246,7.117 373.173,7.562 373.652 C 8.008 374.130,8.278 374.674,8.163 374.861 C 8.047 375.047,8.122 375.200,8.328 375.200 C 8.534 375.200,8.921 375.727,9.188 376.371 C 9.455 377.015,9.927 377.640,10.237 377.759 C 10.546 377.878,10.800 378.167,10.800 378.401 C 10.800 378.635,11.295 379.316,11.900 379.913 C 12.505 380.511,13.323 381.501,13.718 382.113 C 14.121 382.738,14.630 383.105,14.879 382.951 C 15.124 382.800,15.222 382.841,15.097 383.042 C 14.973 383.244,15.668 384.126,16.643 385.004 C 17.617 385.882,19.020 387.157,19.759 387.839 C 20.499 388.520,21.396 389.190,21.752 389.326 C 22.108 389.463,22.400 389.739,22.400 389.939 C 22.400 390.139,22.940 390.527,23.600 390.800 C 24.260 391.073,24.800 391.466,24.800 391.672 C 24.800 391.878,24.953 391.953,25.139 391.837 C 25.326 391.722,25.870 391.992,26.348 392.438 C 26.827 392.883,27.754 393.435,28.409 393.663 C 29.064 393.891,29.600 394.241,29.600 394.439 C 29.600 394.638,29.828 394.800,30.106 394.800 C 30.384 394.800,31.284 395.160,32.104 395.600 C 32.925 396.040,33.796 396.400,34.038 396.400 C 34.281 396.400,35.046 396.651,35.740 396.958 C 38.626 398.235,41.725 399.048,45.800 399.598 C 49.582 400.108,350.418 400.108,354.200 399.598 C 358.275 399.048,361.374 398.235,364.260 396.958 C 364.954 396.651,365.719 396.400,365.962 396.400 C 366.204 396.400,367.075 396.040,367.896 395.600 C 368.716 395.160,369.616 394.800,369.894 394.800 C 370.172 394.800,370.400 394.638,370.400 394.439 C 370.400 394.241,370.936 393.891,371.591 393.663 C 372.246 393.435,373.173 392.883,373.652 392.438 C 374.130 391.992,374.674 391.722,374.861 391.837 C 375.047 391.953,375.200 391.878,375.200 391.672 C 375.200 391.466,375.727 391.079,376.371 390.812 C 377.015 390.545,377.640 390.073,377.759 389.763 C 377.878 389.454,378.155 389.200,378.374 389.200 C 378.594 389.200,379.411 388.615,380.191 387.900 C 380.971 387.185,382.405 385.888,383.378 385.019 C 384.351 384.149,385.041 383.266,384.911 383.057 C 384.782 382.848,384.876 382.800,385.121 382.951 C 385.370 383.105,385.879 382.738,386.282 382.113 C 386.677 381.501,387.460 380.545,388.023 379.989 C 388.586 379.432,389.165 378.667,389.311 378.289 C 389.456 377.910,389.739 377.600,389.939 377.600 C 390.139 377.600,390.527 377.060,390.800 376.400 C 391.073 375.740,391.466 375.200,391.672 375.200 C 391.878 375.200,391.953 375.047,391.837 374.861 C 391.722 374.674,391.992 374.130,392.438 373.652 C 392.883 373.173,393.435 372.246,393.663 371.591 C 393.891 370.936,394.241 370.400,394.439 370.400 C 394.638 370.400,394.800 370.172,394.800 369.894 C 394.800 369.616,395.160 368.716,395.600 367.896 C 396.040 367.075,396.401 366.177,396.402 365.901 C 396.404 365.626,396.667 364.897,396.988 364.283 C 397.308 363.669,397.690 362.499,397.837 361.683 C 397.984 360.867,398.281 359.977,398.497 359.705 C 398.713 359.433,398.781 358.929,398.649 358.584 C 398.517 358.240,398.573 358.059,398.772 358.183 C 399.701 358.757,399.800 343.507,399.800 200.000 C 399.800 56.493,399.701 41.243,398.772 41.817 C 398.573 41.941,398.517 41.760,398.649 41.416 C 398.781 41.071,398.713 40.567,398.497 40.295 C 398.281 40.023,397.984 39.133,397.837 38.317 C 397.690 37.501,397.308 36.331,396.988 35.717 C 396.667 35.103,396.404 34.374,396.402 34.099 C 396.401 33.823,396.040 32.925,395.600 32.104 C 395.160 31.284,394.800 30.384,394.800 30.106 C 394.800 29.828,394.638 29.600,394.439 29.600 C 394.241 29.600,393.891 29.064,393.663 28.409 C 393.435 27.754,392.883 26.827,392.438 26.348 C 391.992 25.870,391.722 25.326,391.837 25.139 C 391.953 24.953,391.878 24.800,391.672 24.800 C 391.466 24.800,391.073 24.260,390.800 23.600 C 390.527 22.940,390.139 22.400,389.939 22.400 C 389.739 22.400,389.462 22.106,389.324 21.747 C 388.818 20.427,383.523 14.800,383.058 15.088 C 382.848 15.217,382.800 15.124,382.951 14.879 C 383.106 14.629,382.740 14.133,382.113 13.742 C 381.501 13.361,380.515 12.543,379.923 11.924 C 379.330 11.306,378.649 10.800,378.410 10.800 C 378.171 10.800,377.878 10.546,377.759 10.237 C 377.640 9.927,377.015 9.455,376.371 9.188 C 375.727 8.921,375.200 8.534,375.200 8.328 C 375.200 8.122,375.047 8.047,374.861 8.163 C 374.674 8.278,374.130 8.008,373.652 7.562 C 373.173 7.117,372.246 6.565,371.591 6.337 C 370.936 6.109,370.400 5.759,370.400 5.561 C 370.400 5.362,370.195 5.200,369.944 5.200 C 369.693 5.200,368.748 4.862,367.844 4.449 C 365.324 3.298,359.791 1.359,357.917 0.970 C 357.413 0.866,355.740 0.610,354.200 0.402 C 350.840 -0.051,48.894 -0.046,45.600 0.408 M208.600 177.124 C 220.683 182.121,227.093 194.231,224.096 206.400 C 222.077 214.601,214.273 222.506,206.883 223.837 C 206.067 223.984,205.188 224.272,204.928 224.478 C 203.265 225.794,192.818 224.183,188.943 222.013 C 179.949 216.976,176.200 210.559,176.200 200.200 C 176.200 188.265,183.220 179.128,194.600 176.252 C 196.804 175.695,206.624 176.307,208.600 177.124 " stroke="none" fill="#ececec" fill-rule="evenodd"></path><path id="path1" d="M195.312 176.815 C 186.507 178.395,178.165 187.060,176.756 196.090 C 173.138 219.280,200.775 233.668,217.156 217.123 C 233.818 200.295,218.809 172.601,195.312 176.815 " stroke="none" fill="#2464ec" fill-rule="evenodd"></path><path id="path2" d="M195.822 176.347 C 195.175 176.486,197.119 176.600,200.144 176.600 C 203.169 176.600,205.229 176.483,204.722 176.340 C 203.549 176.009,197.375 176.014,195.822 176.347 M191.242 177.634 C 190.715 177.845,190.384 178.117,190.507 178.240 C 190.629 178.362,191.240 178.186,191.865 177.847 C 193.121 177.166,192.739 177.035,191.242 177.634 M208.000 177.533 C 208.330 177.736,209.050 178.024,209.600 178.171 C 210.295 178.357,210.417 178.325,210.000 178.067 C 209.670 177.864,208.950 177.576,208.400 177.429 C 207.705 177.243,207.583 177.275,208.000 177.533 M186.563 180.354 C 182.997 182.876,178.380 188.205,178.408 189.766 C 178.412 190.005,178.977 189.300,179.663 188.200 C 181.851 184.693,183.998 182.447,187.122 180.397 C 188.794 179.299,189.975 178.400,189.744 178.400 C 189.514 178.400,188.082 179.279,186.563 180.354 M210.800 178.518 C 210.800 178.610,211.859 179.340,213.152 180.138 C 215.627 181.666,219.586 185.639,220.614 187.627 C 220.947 188.272,221.311 188.800,221.421 188.800 C 222.103 188.800,219.828 185.750,217.242 183.199 C 214.729 180.719,210.800 177.864,210.800 178.518 M222.067 190.420 C 222.301 191.092,222.567 191.567,222.657 191.476 C 222.856 191.278,222.101 189.200,221.831 189.200 C 221.727 189.200,221.833 189.749,222.067 190.420 M177.611 191.371 C 177.017 192.934,177.134 193.180,177.847 191.865 C 178.186 191.240,178.364 190.630,178.242 190.509 C 178.121 190.388,177.837 190.776,177.611 191.371 M223.242 193.200 C 223.238 193.530,223.495 194.790,223.813 196.000 L 224.392 198.200 224.164 196.247 C 223.935 194.290,223.258 192.054,223.242 193.200 M176.257 196.300 C 175.952 198.144,176.005 202.982,176.347 204.577 C 176.486 205.225,176.600 203.290,176.600 200.277 C 176.600 194.177,176.603 194.207,176.257 196.300 M223.691 204.820 C 223.432 206.213,223.290 207.423,223.375 207.508 C 223.606 207.739,224.485 203.255,224.311 202.734 C 224.229 202.488,223.950 203.427,223.691 204.820 M177.429 208.400 C 177.576 208.950,177.864 209.670,178.067 210.000 C 178.325 210.417,178.357 210.295,178.171 209.600 C 178.024 209.050,177.736 208.330,177.533 208.000 C 177.275 207.583,177.243 207.705,177.429 208.400 M221.291 211.734 C 220.571 213.090,220.270 213.840,220.622 213.400 C 221.405 212.422,222.904 209.571,222.728 209.395 C 222.658 209.325,222.011 210.378,221.291 211.734 M179.273 212.500 C 180.843 215.386,188.800 222.837,188.800 221.421 C 188.800 221.311,188.272 220.947,187.627 220.614 C 185.639 219.586,181.666 215.627,180.138 213.152 C 178.452 210.420,177.927 210.025,179.273 212.500 M217.878 216.400 C 216.840 217.500,216.156 218.400,216.358 218.400 C 216.560 218.400,217.479 217.500,218.400 216.400 C 219.321 215.300,220.005 214.400,219.920 214.400 C 219.835 214.400,218.916 215.300,217.878 216.400 M211.400 221.421 C 210.080 222.174,209.180 222.791,209.400 222.791 C 209.881 222.793,214.000 220.465,214.000 220.192 C 214.000 219.929,214.089 219.887,211.400 221.421 M189.200 221.831 C 189.200 222.101,191.278 222.856,191.476 222.657 C 191.567 222.567,191.092 222.301,190.420 222.067 C 189.749 221.833,189.200 221.727,189.200 221.831 M193.447 223.593 C 193.913 223.781,195.173 224.038,196.247 224.164 L 198.200 224.392 196.000 223.813 C 193.577 223.175,192.097 223.047,193.447 223.593 M204.400 223.830 L 202.200 224.370 204.153 224.153 C 205.227 224.033,206.487 223.781,206.953 223.593 C 208.192 223.092,206.926 223.210,204.400 223.830 " stroke="none" fill="#84a4ec" fill-rule="evenodd"></path><path id="path3" d="" stroke="none" fill="#d4dcec" fill-rule="evenodd"></path><path id="path4" d="M216.000 181.725 C 216.000 181.794,216.585 182.379,217.300 183.025 L 218.600 184.200 217.425 182.900 C 216.330 181.688,216.000 181.416,216.000 181.725 M224.537 200.200 C 224.539 201.960,224.609 202.630,224.693 201.689 C 224.778 200.749,224.777 199.309,224.691 198.489 C 224.605 197.670,224.536 198.440,224.537 200.200 M181.600 216.125 C 181.600 216.194,182.185 216.779,182.900 217.425 L 184.200 218.600 183.025 217.300 C 181.930 216.088,181.600 215.816,181.600 216.125 M198.711 224.693 C 199.651 224.778,201.091 224.777,201.911 224.691 C 202.730 224.605,201.960 224.536,200.200 224.537 C 198.440 224.539,197.770 224.609,198.711 224.693 " stroke="none" fill="#ccdcec" fill-rule="evenodd"></path></g></svg>