<svg id="svg" version="1.1" xmlns="http://www.w3.org/2000/svg" xmlns:xlink="http://www.w3.org/1999/xlink" width="400" height="400" viewBox="0, 0, 400,400"><g id="svgg"><path id="path0" d="M96.300 76.787 C 77.535 80.208,70.456 103.996,84.211 117.414 C 99.357 132.189,124.627 121.405,124.551 100.200 C 124.497 85.106,111.185 74.074,96.300 76.787 M296.300 76.787 C 277.535 80.208,270.456 103.996,284.211 117.414 C 299.357 132.189,324.627 121.405,324.551 100.200 C 324.497 85.106,311.185 74.074,296.300 76.787 M96.300 276.787 C 77.535 280.208,70.456 303.996,84.211 317.414 C 99.357 332.189,124.627 321.405,124.551 300.200 C 124.497 285.106,111.185 274.074,96.300 276.787 M296.300 276.787 C 277.535 280.208,270.456 303.996,284.211 317.414 C 294.429 327.381,311.205 326.147,319.744 314.800 C 332.934 297.273,317.874 272.855,296.300 276.787 " stroke="none" fill="#dc2525" fill-rule="evenodd"></path><path id="path1" d="M46.600 0.267 C 43.509 0.644,40.176 1.286,39.807 1.574 C 39.583 1.749,38.950 1.998,38.400 2.127 C 36.278 2.624,31.982 4.249,32.204 4.471 C 32.413 4.679,31.090 5.160,30.286 5.168 C 30.113 5.170,29.695 5.448,29.357 5.786 C 29.019 6.124,28.513 6.400,28.233 6.400 C 27.952 6.400,27.307 6.760,26.800 7.200 C 26.293 7.640,25.635 8.000,25.339 8.000 C 25.042 8.000,24.800 8.158,24.800 8.351 C 24.800 8.545,24.273 8.921,23.629 9.188 C 22.985 9.455,22.360 9.927,22.241 10.237 C 22.122 10.546,21.739 10.800,21.389 10.800 C 21.039 10.800,20.864 10.980,21.000 11.200 C 21.136 11.420,21.075 11.600,20.865 11.600 C 19.815 11.600,11.600 19.809,11.600 20.858 C 11.600 21.072,11.420 21.136,11.200 21.000 C 10.980 20.864,10.800 21.039,10.800 21.389 C 10.800 21.739,10.546 22.122,10.237 22.241 C 9.927 22.360,9.455 22.985,9.188 23.629 C 8.921 24.273,8.545 24.800,8.351 24.800 C 8.158 24.800,8.000 25.042,8.000 25.339 C 8.000 25.635,7.651 26.280,7.225 26.772 C 6.798 27.263,6.336 28.179,6.199 28.805 C 6.061 29.432,5.690 30.159,5.374 30.421 C 5.058 30.683,4.800 31.131,4.800 31.416 C 4.800 31.700,4.656 31.993,4.480 32.067 C 4.084 32.232,2.415 36.933,2.126 38.700 C 2.008 39.415,1.731 40.000,1.510 40.000 C 1.288 40.000,1.199 40.351,1.311 40.781 C 1.423 41.210,1.372 41.615,1.196 41.681 C -0.654 42.372,-0.654 357.628,1.196 358.319 C 1.372 358.385,1.423 358.790,1.311 359.219 C 1.199 359.649,1.288 360.000,1.510 360.000 C 1.731 360.000,2.008 360.585,2.126 361.300 C 2.415 363.067,4.084 367.768,4.480 367.933 C 4.656 368.007,4.800 368.300,4.800 368.584 C 4.800 368.869,5.058 369.317,5.374 369.579 C 5.690 369.841,6.061 370.568,6.199 371.195 C 6.336 371.821,6.798 372.737,7.225 373.228 C 7.651 373.720,8.000 374.365,8.000 374.661 C 8.000 374.958,8.158 375.200,8.351 375.200 C 8.545 375.200,8.921 375.727,9.188 376.371 C 9.455 377.015,9.927 377.640,10.237 377.759 C 10.546 377.878,10.800 378.261,10.800 378.611 C 10.800 378.961,10.980 379.136,11.200 379.000 C 11.420 378.864,11.600 378.928,11.600 379.142 C 11.600 379.357,12.005 380.023,12.500 380.622 C 14.402 382.926,21.200 389.357,21.200 388.852 C 21.200 388.718,21.644 389.087,22.188 389.673 C 22.731 390.259,23.541 390.854,23.988 390.996 C 24.434 391.138,24.800 391.422,24.800 391.627 C 24.800 391.832,25.057 392.000,25.371 392.000 C 25.686 392.000,26.181 392.233,26.471 392.517 C 26.762 392.801,27.585 393.273,28.300 393.565 C 29.015 393.858,29.600 394.255,29.600 394.449 C 29.600 394.642,29.735 394.770,29.900 394.734 C 30.460 394.612,32.439 395.295,32.204 395.529 C 31.982 395.751,36.278 397.376,38.400 397.873 C 38.950 398.002,39.580 398.247,39.800 398.418 C 41.513 399.750,42.158 399.756,197.800 399.886 C 357.579 400.020,358.173 400.014,360.154 398.458 C 360.399 398.265,361.050 398.002,361.600 397.873 C 363.925 397.328,368.007 395.740,367.748 395.481 C 367.593 395.326,367.797 395.200,368.202 395.200 C 368.606 395.200,369.221 394.960,369.569 394.666 C 369.916 394.372,370.830 393.885,371.600 393.583 C 372.370 393.281,373.238 392.801,373.529 392.517 C 373.819 392.233,374.314 392.000,374.629 392.000 C 374.943 392.000,375.200 391.832,375.200 391.627 C 375.200 391.422,375.566 391.138,376.012 390.996 C 376.459 390.854,377.269 390.259,377.812 389.673 C 378.356 389.087,378.800 388.726,378.800 388.870 C 378.800 389.187,380.769 387.441,384.113 384.159 C 386.720 381.600,388.386 379.623,388.395 379.076 C 388.398 378.898,388.580 378.864,388.800 379.000 C 389.020 379.136,389.200 378.961,389.200 378.611 C 389.200 378.261,389.454 377.878,389.763 377.759 C 390.073 377.640,390.545 377.015,390.812 376.371 C 391.079 375.727,391.455 375.200,391.649 375.200 C 391.842 375.200,392.000 374.958,392.000 374.661 C 392.000 374.365,392.349 373.720,392.775 373.228 C 393.202 372.737,393.664 371.821,393.801 371.195 C 393.939 370.568,394.310 369.841,394.626 369.579 C 394.942 369.317,395.200 368.869,395.200 368.584 C 395.200 368.300,395.344 368.007,395.520 367.933 C 395.916 367.768,397.585 363.067,397.874 361.300 C 397.992 360.585,398.269 360.000,398.490 360.000 C 398.712 360.000,398.801 359.649,398.689 359.219 C 398.577 358.790,398.628 358.385,398.804 358.319 C 400.654 357.628,400.654 42.372,398.804 41.681 C 398.628 41.615,398.577 41.210,398.689 40.781 C 398.801 40.351,398.712 40.000,398.490 40.000 C 398.269 40.000,397.992 39.415,397.874 38.700 C 397.585 36.933,395.916 32.232,395.520 32.067 C 395.344 31.993,395.200 31.700,395.200 31.416 C 395.200 31.131,394.942 30.683,394.626 30.421 C 394.310 30.159,393.939 29.432,393.801 28.805 C 393.664 28.179,393.202 27.263,392.775 26.772 C 392.349 26.280,392.000 25.635,392.000 25.339 C 392.000 25.042,391.842 24.800,391.649 24.800 C 391.455 24.800,391.079 24.273,390.812 23.629 C 390.545 22.985,390.073 22.360,389.763 22.241 C 389.454 22.122,389.200 21.739,389.200 21.389 C 389.200 21.039,389.020 20.864,388.800 21.000 C 388.580 21.136,388.400 21.072,388.400 20.858 C 388.400 19.768,380.225 11.600,379.135 11.600 C 378.925 11.600,378.864 11.420,379.000 11.200 C 379.136 10.980,378.961 10.800,378.611 10.800 C 378.261 10.800,377.878 10.546,377.759 10.237 C 377.640 9.927,377.015 9.455,376.371 9.188 C 375.727 8.921,375.200 8.545,375.200 8.351 C 375.200 8.158,374.958 8.000,374.661 8.000 C 374.365 8.000,373.707 7.640,373.200 7.200 C 372.693 6.760,372.048 6.400,371.767 6.400 C 371.487 6.400,370.981 6.124,370.643 5.786 C 370.305 5.448,369.931 5.181,369.812 5.193 C 369.212 5.252,367.594 4.673,367.796 4.471 C 368.018 4.249,363.722 2.624,361.600 2.127 C 361.050 1.998,360.401 1.736,360.157 1.544 C 358.217 0.020,357.370 0.013,199.600 0.067 C 116.110 0.096,47.260 0.186,46.600 0.267 M109.400 77.210 C 113.796 78.921,121.200 84.863,121.200 86.680 C 121.200 86.966,121.355 87.200,121.545 87.200 C 121.943 87.200,124.000 91.616,124.000 92.470 C 124.000 92.784,124.225 93.265,124.500 93.540 C 125.160 94.200,125.209 106.413,124.555 107.239 C 124.310 107.547,123.994 108.288,123.851 108.885 C 122.485 114.610,114.061 122.289,107.200 124.063 C 104.800 124.684,97.262 124.956,96.225 124.460 C 95.771 124.242,94.812 123.964,94.093 123.841 C 89.183 123.000,81.951 117.224,79.242 111.982 C 71.684 97.355,79.371 80.359,95.400 76.254 C 97.741 75.655,107.034 76.289,109.400 77.210 M309.400 77.210 C 313.796 78.921,321.200 84.863,321.200 86.680 C 321.200 86.966,321.355 87.200,321.545 87.200 C 321.943 87.200,324.000 91.616,324.000 92.470 C 324.000 92.784,324.225 93.265,324.500 93.540 C 325.160 94.200,325.209 106.413,324.555 107.239 C 324.310 107.547,323.994 108.288,323.851 108.885 C 322.485 114.610,314.061 122.289,307.200 124.063 C 304.800 124.684,297.262 124.956,296.225 124.460 C 295.771 124.242,294.812 123.964,294.093 123.841 C 289.183 123.000,281.951 117.224,279.242 111.982 C 271.684 97.355,279.371 80.359,295.400 76.254 C 297.741 75.655,307.034 76.289,309.400 77.210 M109.400 277.210 C 113.796 278.921,121.200 284.863,121.200 286.680 C 121.200 286.966,121.355 287.200,121.545 287.200 C 121.943 287.200,124.000 291.616,124.000 292.470 C 124.000 292.784,124.225 293.265,124.500 293.540 C 125.160 294.200,125.209 306.413,124.555 307.239 C 124.310 307.547,123.994 308.288,123.851 308.885 C 122.485 314.610,114.061 322.289,107.200 324.063 C 104.800 324.684,97.262 324.956,96.225 324.460 C 95.771 324.242,94.812 323.964,94.093 323.841 C 89.183 323.000,81.951 317.224,79.242 311.982 C 71.684 297.355,79.371 280.359,95.400 276.254 C 97.741 275.655,107.034 276.289,109.400 277.210 M309.400 277.210 C 313.796 278.921,321.200 284.863,321.200 286.680 C 321.200 286.966,321.355 287.200,321.545 287.200 C 321.943 287.200,324.000 291.616,324.000 292.470 C 324.000 292.784,324.225 293.265,324.500 293.540 C 325.160 294.200,325.209 306.413,324.555 307.239 C 324.310 307.547,323.994 308.288,323.851 308.885 C 322.485 314.610,314.061 322.289,307.200 324.063 C 304.800 324.684,297.262 324.956,296.225 324.460 C 295.771 324.242,294.812 323.964,294.093 323.841 C 289.183 323.000,281.951 317.224,279.242 311.982 C 271.684 297.355,279.371 280.359,295.400 276.254 C 297.741 275.655,307.034 276.289,309.400 277.210 " stroke="none" fill="#ecebeb" fill-rule="evenodd"></path><path id="path2" d="M97.000 76.390 C 96.340 76.552,97.510 76.596,99.600 76.488 C 101.690 76.379,103.475 76.225,103.567 76.145 C 103.872 75.879,98.219 76.090,97.000 76.390 M297.000 76.390 C 296.340 76.552,297.510 76.596,299.600 76.488 C 301.690 76.379,303.475 76.225,303.567 76.145 C 303.872 75.879,298.219 76.090,297.000 76.390 M92.100 77.612 C 90.761 78.151,91.011 78.424,92.400 77.940 C 93.060 77.710,93.600 77.449,93.600 77.361 C 93.600 77.124,93.113 77.205,92.100 77.612 M108.400 77.533 C 108.730 77.736,109.450 78.024,110.000 78.171 C 110.695 78.357,110.817 78.325,110.400 78.067 C 110.070 77.864,109.350 77.576,108.800 77.429 C 108.105 77.243,107.983 77.275,108.400 77.533 M292.100 77.612 C 290.761 78.151,291.011 78.424,292.400 77.940 C 293.060 77.710,293.600 77.449,293.600 77.361 C 293.600 77.124,293.113 77.205,292.100 77.612 M308.400 77.533 C 308.730 77.736,309.450 78.024,310.000 78.171 C 310.695 78.357,310.817 78.325,310.400 78.067 C 310.070 77.864,309.350 77.576,308.800 77.429 C 308.105 77.243,307.983 77.275,308.400 77.533 M111.200 78.579 C 111.200 78.689,111.740 79.059,112.400 79.400 C 113.060 79.741,113.600 79.931,113.600 79.821 C 113.600 79.711,113.060 79.341,112.400 79.000 C 111.740 78.659,111.200 78.469,111.200 78.579 M311.200 78.579 C 311.200 78.689,311.740 79.059,312.400 79.400 C 313.060 79.741,313.600 79.931,313.600 79.821 C 313.600 79.711,313.060 79.341,312.400 79.000 C 311.740 78.659,311.200 78.469,311.200 78.579 M114.000 80.125 C 114.000 80.224,114.661 80.809,115.468 81.425 C 116.276 82.041,116.811 82.341,116.656 82.091 C 116.340 81.579,114.000 79.847,114.000 80.125 M314.000 80.125 C 314.000 80.224,314.661 80.809,315.468 81.425 C 316.276 82.041,316.811 82.341,316.656 82.091 C 316.340 81.579,314.000 79.847,314.000 80.125 M82.575 84.500 L 81.400 85.800 82.700 84.625 C 83.912 83.530,84.184 83.200,83.875 83.200 C 83.806 83.200,83.221 83.785,82.575 84.500 M282.575 84.500 L 281.400 85.800 282.700 84.625 C 283.415 83.979,284.000 83.394,284.000 83.325 C 284.000 83.016,283.670 83.288,282.575 84.500 M77.429 93.829 C 77.281 94.415,77.238 94.972,77.332 95.066 C 77.427 95.160,77.624 94.758,77.771 94.171 C 77.919 93.585,77.962 93.028,77.868 92.934 C 77.773 92.840,77.576 93.242,77.429 93.829 M277.429 93.829 C 277.281 94.415,277.238 94.972,277.332 95.066 C 277.427 95.160,277.624 94.758,277.771 94.171 C 277.919 93.585,277.962 93.028,277.868 92.934 C 277.773 92.840,277.576 93.242,277.429 93.829 M124.909 100.400 C 124.909 101.390,124.987 101.795,125.082 101.300 C 125.178 100.805,125.178 99.995,125.082 99.500 C 124.987 99.005,124.909 99.410,124.909 100.400 M324.909 100.400 C 324.909 101.390,324.987 101.795,325.082 101.300 C 325.178 100.805,325.178 99.995,325.082 99.500 C 324.987 99.005,324.909 99.410,324.909 100.400 M77.448 106.600 C 77.591 107.260,77.866 108.070,78.059 108.400 C 78.284 108.784,78.318 108.568,78.152 107.800 C 78.009 107.140,77.734 106.330,77.541 106.000 C 77.316 105.616,77.282 105.832,77.448 106.600 M277.448 106.600 C 277.591 107.260,277.866 108.070,278.059 108.400 C 278.284 108.784,278.318 108.568,278.152 107.800 C 278.009 107.140,277.734 106.330,277.541 106.000 C 277.316 105.616,277.282 105.832,277.448 106.600 M123.644 107.244 C 123.398 107.951,123.266 108.600,123.352 108.685 C 123.438 108.771,123.709 108.262,123.956 107.556 C 124.202 106.849,124.334 106.200,124.248 106.115 C 124.162 106.029,123.891 106.538,123.644 107.244 M323.644 107.244 C 323.398 107.951,323.266 108.600,323.352 108.685 C 323.438 108.771,323.709 108.262,323.956 107.556 C 324.202 106.849,324.334 106.200,324.248 106.115 C 324.162 106.029,323.891 106.538,323.644 107.244 M78.404 109.433 C 78.409 109.899,80.750 114.000,81.012 114.000 C 81.119 114.000,80.634 112.965,79.933 111.700 C 78.453 109.028,78.399 108.947,78.404 109.433 M278.404 109.433 C 278.409 109.899,280.750 114.000,281.012 114.000 C 281.119 114.000,280.634 112.965,279.933 111.700 C 278.453 109.028,278.399 108.947,278.404 109.433 M120.187 114.300 C 119.577 115.125,118.431 116.520,117.639 117.399 L 116.200 118.999 117.662 117.658 C 119.038 116.395,121.858 112.800,121.472 112.800 C 121.375 112.800,120.796 113.475,120.187 114.300 M320.187 114.300 C 319.577 115.125,318.431 116.520,317.639 117.399 L 316.200 118.999 317.662 117.658 C 319.038 116.395,321.858 112.800,321.472 112.800 C 321.375 112.800,320.796 113.475,320.187 114.300 M83.688 117.413 C 84.286 118.043,84.847 118.477,84.935 118.379 C 85.023 118.280,84.533 117.765,83.847 117.234 L 82.600 116.269 83.688 117.413 M283.688 117.413 C 284.286 118.043,284.847 118.477,284.935 118.379 C 285.023 118.280,284.533 117.765,283.847 117.234 L 282.600 116.269 283.688 117.413 M110.400 122.200 C 109.850 122.514,109.580 122.772,109.800 122.772 C 110.020 122.772,110.650 122.514,111.200 122.200 C 111.750 121.886,112.020 121.628,111.800 121.628 C 111.580 121.628,110.950 121.886,110.400 122.200 M310.400 122.200 C 309.850 122.514,309.580 122.772,309.800 122.772 C 310.020 122.772,310.650 122.514,311.200 122.200 C 311.750 121.886,312.020 121.628,311.800 121.628 C 311.580 121.628,310.950 121.886,310.400 122.200 M94.200 123.581 C 94.968 123.929,97.110 124.156,96.767 123.853 C 96.675 123.772,95.880 123.596,95.000 123.462 C 93.885 123.293,93.642 123.329,94.200 123.581 M105.800 123.600 C 104.711 123.877,104.693 123.907,105.600 123.925 C 106.150 123.935,106.960 123.789,107.400 123.600 C 108.386 123.176,107.466 123.176,105.800 123.600 M294.200 123.581 C 294.968 123.929,297.110 124.156,296.767 123.853 C 296.675 123.772,295.880 123.596,295.000 123.462 C 293.885 123.293,293.642 123.329,294.200 123.581 M305.800 123.600 C 304.711 123.877,304.693 123.907,305.600 123.925 C 306.150 123.935,306.960 123.789,307.400 123.600 C 308.386 123.176,307.466 123.176,305.800 123.600 M97.000 276.390 C 96.340 276.552,97.510 276.596,99.600 276.488 C 101.690 276.379,103.475 276.225,103.567 276.145 C 103.872 275.879,98.219 276.090,97.000 276.390 M297.000 276.390 C 296.340 276.552,297.510 276.596,299.600 276.488 C 301.690 276.379,303.475 276.225,303.567 276.145 C 303.872 275.879,298.219 276.090,297.000 276.390 M92.100 277.612 C 90.761 278.151,91.011 278.424,92.400 277.940 C 93.060 277.710,93.600 277.449,93.600 277.361 C 93.600 277.124,93.113 277.205,92.100 277.612 M108.400 277.533 C 108.730 277.736,109.450 278.024,110.000 278.171 C 110.695 278.357,110.817 278.325,110.400 278.067 C 110.070 277.864,109.350 277.576,108.800 277.429 C 108.105 277.243,107.983 277.275,108.400 277.533 M292.100 277.612 C 290.761 278.151,291.011 278.424,292.400 277.940 C 293.060 277.710,293.600 277.449,293.600 277.361 C 293.600 277.124,293.113 277.205,292.100 277.612 M308.400 277.533 C 308.730 277.736,309.450 278.024,310.000 278.171 C 310.695 278.357,310.817 278.325,310.400 278.067 C 310.070 277.864,309.350 277.576,308.800 277.429 C 308.105 277.243,307.983 277.275,308.400 277.533 M111.200 278.579 C 111.200 278.689,111.740 279.059,112.400 279.400 C 113.060 279.741,113.600 279.931,113.600 279.821 C 113.600 279.711,113.060 279.341,112.400 279.000 C 111.740 278.659,111.200 278.469,111.200 278.579 M311.200 278.579 C 311.200 278.689,311.740 279.059,312.400 279.400 C 313.060 279.741,313.600 279.931,313.600 279.821 C 313.600 279.711,313.060 279.341,312.400 279.000 C 311.740 278.659,311.200 278.469,311.200 278.579 M114.000 280.125 C 114.000 280.224,114.661 280.809,115.468 281.425 C 116.276 282.041,116.811 282.341,116.656 282.091 C 116.340 281.579,114.000 279.847,114.000 280.125 M314.000 280.125 C 314.000 280.224,314.661 280.809,315.468 281.425 C 316.276 282.041,316.811 282.341,316.656 282.091 C 316.340 281.579,314.000 279.847,314.000 280.125 M82.575 284.500 L 81.400 285.800 82.700 284.625 C 83.912 283.530,84.184 283.200,83.875 283.200 C 83.806 283.200,83.221 283.785,82.575 284.500 M282.575 284.500 L 281.400 285.800 282.700 284.625 C 283.415 283.979,284.000 283.394,284.000 283.325 C 284.000 283.016,283.670 283.288,282.575 284.500 M77.429 293.829 C 77.281 294.415,77.238 294.972,77.332 295.066 C 77.427 295.160,77.624 294.758,77.771 294.171 C 77.919 293.585,77.962 293.028,77.868 292.934 C 77.773 292.840,77.576 293.242,77.429 293.829 M277.429 293.829 C 277.281 294.415,277.238 294.972,277.332 295.066 C 277.427 295.160,277.624 294.758,277.771 294.171 C 277.919 293.585,277.962 293.028,277.868 292.934 C 277.773 292.840,277.576 293.242,277.429 293.829 M124.909 300.400 C 124.909 301.390,124.987 301.795,125.082 301.300 C 125.178 300.805,125.178 299.995,125.082 299.500 C 124.987 299.005,124.909 299.410,124.909 300.400 M324.909 300.400 C 324.909 301.390,324.987 301.795,325.082 301.300 C 325.178 300.805,325.178 299.995,325.082 299.500 C 324.987 299.005,324.909 299.410,324.909 300.400 M77.448 306.600 C 77.591 307.260,77.866 308.070,78.059 308.400 C 78.284 308.784,78.318 308.568,78.152 307.800 C 78.009 307.140,77.734 306.330,77.541 306.000 C 77.316 305.616,77.282 305.832,77.448 306.600 M277.448 306.600 C 277.591 307.260,277.866 308.070,278.059 308.400 C 278.284 308.784,278.318 308.568,278.152 307.800 C 278.009 307.140,277.734 306.330,277.541 306.000 C 277.316 305.616,277.282 305.832,277.448 306.600 M123.644 307.244 C 123.398 307.951,123.266 308.600,123.352 308.685 C 123.438 308.771,123.709 308.262,123.956 307.556 C 124.202 306.849,124.334 306.200,124.248 306.115 C 124.162 306.029,123.891 306.538,123.644 307.244 M323.644 307.244 C 323.398 307.951,323.266 308.600,323.352 308.685 C 323.438 308.771,323.709 308.262,323.956 307.556 C 324.202 306.849,324.334 306.200,324.248 306.115 C 324.162 306.029,323.891 306.538,323.644 307.244 M78.404 309.433 C 78.409 309.899,80.750 314.000,81.012 314.000 C 81.119 314.000,80.634 312.965,79.933 311.700 C 78.453 309.028,78.399 308.947,78.404 309.433 M278.404 309.433 C 278.409 309.899,280.750 314.000,281.012 314.000 C 281.119 314.000,280.634 312.965,279.933 311.700 C 278.453 309.028,278.399 308.947,278.404 309.433 M120.187 314.300 C 119.577 315.125,118.431 316.520,117.639 317.399 L 116.200 318.999 117.662 317.658 C 119.038 316.395,121.858 312.800,121.472 312.800 C 121.375 312.800,120.796 313.475,120.187 314.300 M320.187 314.300 C 319.577 315.125,318.431 316.520,317.639 317.399 L 316.200 318.999 317.662 317.658 C 319.038 316.395,321.858 312.800,321.472 312.800 C 321.375 312.800,320.796 313.475,320.187 314.300 M83.688 317.413 C 84.286 318.043,84.847 318.477,84.935 318.379 C 85.023 318.280,84.533 317.765,83.847 317.234 L 82.600 316.269 83.688 317.413 M283.688 317.413 C 284.286 318.043,284.847 318.477,284.935 318.379 C 285.023 318.280,284.533 317.765,283.847 317.234 L 282.600 316.269 283.688 317.413 M110.400 322.200 C 109.850 322.514,109.580 322.772,109.800 322.772 C 110.020 322.772,110.650 322.514,111.200 322.200 C 111.750 321.886,112.020 321.628,111.800 321.628 C 111.580 321.628,110.950 321.886,110.400 322.200 M310.400 322.200 C 309.850 322.514,309.580 322.772,309.800 322.772 C 310.020 322.772,310.650 322.514,311.200 322.200 C 311.750 321.886,312.020 321.628,311.800 321.628 C 311.580 321.628,310.950 321.886,310.400 322.200 M94.200 323.581 C 94.968 323.929,97.110 324.156,96.767 323.853 C 96.675 323.772,95.880 323.596,95.000 323.462 C 93.885 323.293,93.642 323.329,94.200 323.581 M105.800 323.600 C 104.711 323.877,104.693 323.907,105.600 323.925 C 106.150 323.935,106.960 323.789,107.400 323.600 C 108.386 323.176,107.466 323.176,105.800 323.600 M294.200 323.581 C 294.968 323.929,297.110 324.156,296.767 323.853 C 296.675 323.772,295.880 323.596,295.000 323.462 C 293.885 323.293,293.642 323.329,294.200 323.581 M305.800 323.600 C 304.711 323.877,304.693 323.907,305.600 323.925 C 306.150 323.935,306.960 323.789,307.400 323.600 C 308.386 323.176,307.466 323.176,305.800 323.600 " stroke="none" fill="#e47c7c" fill-rule="evenodd"></path><path id="path3" d="M83.381 83.300 L 81.800 85.000 83.500 83.419 C 84.435 82.549,85.200 81.784,85.200 81.719 C 85.200 81.416,84.852 81.719,83.381 83.300 M283.381 83.300 L 281.800 85.000 283.500 83.419 C 285.081 81.948,285.384 81.600,285.081 81.600 C 285.016 81.600,284.251 82.365,283.381 83.300 M124.893 97.600 C 124.893 98.370,124.975 98.685,125.076 98.300 C 125.176 97.915,125.176 97.285,125.076 96.900 C 124.975 96.515,124.893 96.830,124.893 97.600 M324.893 97.600 C 324.893 98.370,324.975 98.685,325.076 98.300 C 325.176 97.915,325.176 97.285,325.076 96.900 C 324.975 96.515,324.893 96.830,324.893 97.600 M76.540 100.400 C 76.540 102.270,76.609 103.035,76.693 102.100 C 76.777 101.165,76.777 99.635,76.693 98.700 C 76.609 97.765,76.540 98.530,76.540 100.400 M276.540 100.400 C 276.540 102.270,276.609 103.035,276.693 102.100 C 276.777 101.165,276.777 99.635,276.693 98.700 C 276.609 97.765,276.540 98.530,276.540 100.400 M83.381 283.300 L 81.800 285.000 83.500 283.419 C 85.081 281.948,85.384 281.600,85.081 281.600 C 85.016 281.600,84.251 282.365,83.381 283.300 M283.381 283.300 L 281.800 285.000 283.500 283.419 C 285.081 281.948,285.384 281.600,285.081 281.600 C 285.016 281.600,284.251 282.365,283.381 283.300 M124.893 297.600 C 124.893 298.370,124.975 298.685,125.076 298.300 C 125.176 297.915,125.176 297.285,125.076 296.900 C 124.975 296.515,124.893 296.830,124.893 297.600 M324.893 297.600 C 324.893 298.370,324.975 298.685,325.076 298.300 C 325.176 297.915,325.176 297.285,325.076 296.900 C 324.975 296.515,324.893 296.830,324.893 297.600 M76.540 300.400 C 76.540 302.270,76.609 303.035,76.693 302.100 C 76.777 301.165,76.777 299.635,76.693 298.700 C 76.609 297.765,76.540 298.530,76.540 300.400 M276.540 300.400 C 276.540 302.270,276.609 303.035,276.693 302.100 C 276.777 301.165,276.777 299.635,276.693 298.700 C 276.609 297.765,276.540 298.530,276.540 300.400 " stroke="none" fill="#e4acac" fill-rule="evenodd"></path><path id="path4" d="M76.600 95.600 C 76.448 96.291,76.407 96.941,76.509 97.042 C 76.611 97.144,76.809 96.653,76.950 95.950 C 77.091 95.247,77.131 94.598,77.041 94.508 C 76.950 94.417,76.752 94.909,76.600 95.600 M276.600 95.600 C 276.448 96.291,276.407 96.941,276.509 97.042 C 276.611 97.144,276.809 96.653,276.950 95.950 C 277.283 94.283,276.960 93.960,276.600 95.600 M83.583 117.700 C 85.241 119.466,85.600 119.784,85.600 119.483 C 85.600 119.419,84.745 118.564,83.700 117.583 L 81.800 115.800 83.583 117.700 M283.583 117.700 C 284.564 118.745,285.419 119.600,285.483 119.600 C 285.784 119.600,285.466 119.241,283.700 117.583 L 281.800 115.800 283.583 117.700 M96.262 124.500 C 96.501 124.887,104.852 124.881,105.463 124.494 C 105.718 124.332,103.710 124.200,101.002 124.200 C 98.294 124.200,96.161 124.335,96.262 124.500 M296.262 124.500 C 296.501 124.887,304.852 124.881,305.463 124.494 C 305.718 124.332,303.710 124.200,301.002 124.200 C 298.294 124.200,296.161 124.335,296.262 124.500 M76.600 295.600 C 76.448 296.291,76.407 296.941,76.509 297.042 C 76.611 297.144,76.809 296.653,76.950 295.950 C 77.283 294.283,76.960 293.960,76.600 295.600 M276.600 295.600 C 276.448 296.291,276.407 296.941,276.509 297.042 C 276.611 297.144,276.809 296.653,276.950 295.950 C 277.091 295.247,277.131 294.598,277.041 294.508 C 276.950 294.417,276.752 294.909,276.600 295.600 M83.583 317.700 C 84.564 318.745,85.419 319.600,85.483 319.600 C 85.784 319.600,85.466 319.241,83.700 317.583 L 81.800 315.800 83.583 317.700 M283.583 317.700 C 284.564 318.745,285.419 319.600,285.483 319.600 C 285.784 319.600,285.466 319.241,283.700 317.583 L 281.800 315.800 283.583 317.700 M96.262 324.500 C 96.501 324.887,104.852 324.881,105.463 324.494 C 105.718 324.332,103.710 324.200,101.002 324.200 C 98.294 324.200,96.161 324.335,96.262 324.500 M296.262 324.500 C 296.501 324.887,304.852 324.881,305.463 324.494 C 305.718 324.332,303.710 324.200,301.002 324.200 C 298.294 324.200,296.161 324.335,296.262 324.500 " stroke="none" fill="#ecd4d4" fill-rule="evenodd"></path></g></svg>