<svg id="svg" version="1.1" xmlns="http://www.w3.org/2000/svg" xmlns:xlink="http://www.w3.org/1999/xlink" width="400" height="400" viewBox="0, 0, 400,400"><g id="svgg"><path id="path0" d="M45.600 0.408 C 44.390 0.574,42.906 0.808,42.303 0.928 C 40.320 1.322,34.839 3.224,32.156 4.449 C 31.252 4.862,30.307 5.200,30.056 5.200 C 29.805 5.200,29.600 5.362,29.600 5.561 C 29.600 5.759,29.082 6.102,28.449 6.323 C 27.815 6.544,26.960 7.013,26.549 7.365 C 26.137 7.718,25.659 7.999,25.486 7.989 C 25.313 7.979,24.914 8.203,24.600 8.486 C 23.223 9.724,22.799 10.012,22.788 9.716 C 22.781 9.542,22.592 9.715,22.368 10.100 C 22.144 10.485,21.794 10.800,21.591 10.800 C 20.650 10.800,10.800 20.681,10.800 21.625 C 10.800 21.845,10.546 22.122,10.237 22.241 C 9.927 22.360,9.455 22.985,9.188 23.629 C 8.921 24.273,8.534 24.800,8.328 24.800 C 8.122 24.800,8.047 24.953,8.163 25.139 C 8.278 25.326,8.008 25.870,7.562 26.348 C 7.117 26.827,6.565 27.754,6.337 28.409 C 6.109 29.064,5.759 29.600,5.561 29.600 C 5.362 29.600,5.200 29.828,5.200 30.106 C 5.200 30.384,4.840 31.284,4.400 32.104 C 3.960 32.925,3.599 33.823,3.598 34.099 C 3.596 34.374,3.333 35.103,3.012 35.717 C 2.692 36.331,2.310 37.501,2.163 38.317 C 2.016 39.133,1.719 40.023,1.503 40.295 C 1.287 40.567,1.219 41.071,1.351 41.416 C 1.483 41.760,1.427 41.941,1.228 41.817 C 0.299 41.243,0.200 56.493,0.200 200.000 C 0.200 343.507,0.299 358.757,1.228 358.183 C 1.427 358.059,1.483 358.240,1.351 358.584 C 1.219 358.929,1.287 359.433,1.503 359.705 C 1.719 359.977,2.016 360.867,2.163 361.683 C 2.310 362.499,2.692 363.669,3.012 364.283 C 3.333 364.897,3.596 365.626,3.598 365.901 C 3.599 366.177,3.960 367.075,4.400 367.896 C 4.840 368.716,5.200 369.616,5.200 369.894 C 5.200 370.172,5.362 370.400,5.561 370.400 C 5.759 370.400,6.109 370.936,6.337 371.591 C 6.565 372.246,7.117 373.173,7.562 373.652 C 8.008 374.130,8.278 374.674,8.163 374.861 C 8.047 375.047,8.122 375.200,8.328 375.200 C 8.534 375.200,8.921 375.727,9.188 376.371 C 9.455 377.015,9.927 377.640,10.237 377.759 C 10.546 377.878,10.800 378.155,10.800 378.375 C 10.800 379.327,20.204 388.732,21.749 389.325 C 22.107 389.463,22.400 389.739,22.400 389.939 C 22.400 390.139,22.940 390.527,23.600 390.800 C 24.260 391.073,24.800 391.466,24.800 391.672 C 24.800 391.878,24.953 391.953,25.139 391.837 C 25.326 391.722,25.870 391.992,26.348 392.438 C 26.827 392.883,27.754 393.435,28.409 393.663 C 29.064 393.891,29.600 394.241,29.600 394.439 C 29.600 394.638,29.828 394.800,30.106 394.800 C 30.384 394.800,31.284 395.160,32.104 395.600 C 32.925 396.040,33.796 396.400,34.038 396.400 C 34.281 396.400,35.046 396.651,35.740 396.958 C 38.626 398.235,41.725 399.048,45.800 399.598 C 49.582 400.108,350.418 400.108,354.200 399.598 C 358.275 399.048,361.374 398.235,364.260 396.958 C 364.954 396.651,365.719 396.400,365.962 396.400 C 366.204 396.400,367.075 396.040,367.896 395.600 C 368.716 395.160,369.616 394.800,369.894 394.800 C 370.172 394.800,370.400 394.638,370.400 394.439 C 370.400 394.241,370.936 393.891,371.591 393.663 C 372.246 393.435,373.173 392.883,373.652 392.438 C 374.130 391.992,374.674 391.722,374.861 391.837 C 375.047 391.953,375.200 391.878,375.200 391.672 C 375.200 391.466,375.727 391.079,376.371 390.812 C 377.015 390.545,377.640 390.073,377.759 389.763 C 377.878 389.454,378.155 389.200,378.376 389.200 C 379.345 389.200,388.721 379.825,389.324 378.253 C 389.462 377.894,389.739 377.600,389.939 377.600 C 390.139 377.600,390.527 377.060,390.800 376.400 C 391.073 375.740,391.466 375.200,391.672 375.200 C 391.878 375.200,391.953 375.047,391.837 374.861 C 391.722 374.674,391.992 374.130,392.438 373.652 C 392.883 373.173,393.435 372.246,393.663 371.591 C 393.891 370.936,394.241 370.400,394.439 370.400 C 394.638 370.400,394.800 370.172,394.800 369.894 C 394.800 369.616,395.160 368.716,395.600 367.896 C 396.040 367.075,396.401 366.177,396.402 365.901 C 396.404 365.626,396.667 364.897,396.988 364.283 C 397.308 363.669,397.690 362.499,397.837 361.683 C 397.984 360.867,398.281 359.977,398.497 359.705 C 398.713 359.433,398.781 358.929,398.649 358.584 C 398.517 358.240,398.573 358.059,398.772 358.183 C 399.701 358.757,399.800 343.507,399.800 200.000 C 399.800 56.493,399.701 41.243,398.772 41.817 C 398.573 41.941,398.517 41.760,398.649 41.416 C 398.781 41.071,398.713 40.567,398.497 40.295 C 398.281 40.023,397.984 39.133,397.837 38.317 C 397.690 37.501,397.308 36.331,396.988 35.717 C 396.667 35.103,396.404 34.374,396.402 34.099 C 396.401 33.823,396.040 32.925,395.600 32.104 C 395.160 31.284,394.800 30.384,394.800 30.106 C 394.800 29.828,394.638 29.600,394.439 29.600 C 394.241 29.600,393.891 29.064,393.663 28.409 C 393.435 27.754,392.883 26.827,392.438 26.348 C 391.992 25.870,391.722 25.326,391.837 25.139 C 391.953 24.953,391.878 24.800,391.672 24.800 C 391.466 24.800,391.073 24.260,390.800 23.600 C 390.527 22.940,390.139 22.400,389.939 22.400 C 389.739 22.400,389.462 22.106,389.324 21.747 C 388.721 20.175,379.345 10.800,378.376 10.800 C 378.155 10.800,377.878 10.546,377.759 10.237 C 377.640 9.927,377.015 9.455,376.371 9.188 C 375.727 8.921,375.200 8.534,375.200 8.328 C 375.200 8.122,375.047 8.047,374.861 8.163 C 374.674 8.278,374.130 8.008,373.652 7.562 C 373.173 7.117,372.246 6.565,371.591 6.337 C 370.936 6.109,370.400 5.759,370.400 5.561 C 370.400 5.362,370.195 5.200,369.944 5.200 C 369.693 5.200,368.748 4.862,367.844 4.449 C 365.324 3.298,359.791 1.359,357.917 0.970 C 357.413 0.866,355.740 0.610,354.200 0.402 C 350.840 -0.051,48.894 -0.046,45.600 0.408 M309.400 77.210 C 313.796 78.921,321.200 84.863,321.200 86.680 C 321.200 86.966,321.355 87.200,321.545 87.200 C 321.943 87.200,324.000 91.616,324.000 92.470 C 324.000 92.784,324.225 93.265,324.500 93.540 C 325.160 94.200,325.209 106.413,324.555 107.239 C 324.310 107.547,323.994 108.288,323.851 108.885 C 322.485 114.610,314.061 122.289,307.200 124.063 C 304.800 124.684,297.262 124.956,296.225 124.460 C 295.771 124.242,294.812 123.964,294.093 123.841 C 289.183 123.000,281.951 117.224,279.242 111.982 C 271.684 97.355,279.371 80.359,295.400 76.254 C 297.741 75.655,307.034 76.289,309.400 77.210 M109.400 277.210 C 113.796 278.921,121.200 284.863,121.200 286.680 C 121.200 286.966,121.355 287.200,121.545 287.200 C 121.943 287.200,124.000 291.616,124.000 292.470 C 124.000 292.784,124.225 293.265,124.500 293.540 C 125.160 294.200,125.209 306.413,124.555 307.239 C 124.310 307.547,123.994 308.288,123.851 308.885 C 122.485 314.610,114.061 322.289,107.200 324.063 C 104.800 324.684,97.262 324.956,96.225 324.460 C 95.771 324.242,94.812 323.964,94.093 323.841 C 89.183 323.000,81.951 317.224,79.242 311.982 C 71.684 297.355,79.371 280.359,95.400 276.254 C 97.741 275.655,107.034 276.289,109.400 277.210 " stroke="none" fill="#ecebeb" fill-rule="evenodd"></path><path id="path1" d="M296.300 76.787 C 277.535 80.208,270.456 103.996,284.211 117.414 C 299.357 132.189,324.627 121.405,324.551 100.200 C 324.497 85.106,311.185 74.074,296.300 76.787 M96.300 276.787 C 77.535 280.208,70.456 303.996,84.211 317.414 C 99.357 332.189,124.627 321.405,124.551 300.200 C 124.497 285.106,111.185 274.074,96.300 276.787 " stroke="none" fill="#dc2525" fill-rule="evenodd"></path><path id="path2" d="M297.000 76.390 C 296.340 76.552,297.510 76.596,299.600 76.488 C 301.690 76.379,303.475 76.225,303.567 76.145 C 303.872 75.879,298.219 76.090,297.000 76.390 M292.100 77.612 C 290.761 78.151,291.011 78.424,292.400 77.940 C 293.060 77.710,293.600 77.449,293.600 77.361 C 293.600 77.124,293.113 77.205,292.100 77.612 M308.400 77.533 C 308.730 77.736,309.450 78.024,310.000 78.171 C 310.695 78.357,310.817 78.325,310.400 78.067 C 310.070 77.864,309.350 77.576,308.800 77.429 C 308.105 77.243,307.983 77.275,308.400 77.533 M311.200 78.579 C 311.200 78.689,311.740 79.059,312.400 79.400 C 313.060 79.741,313.600 79.931,313.600 79.821 C 313.600 79.711,313.060 79.341,312.400 79.000 C 311.740 78.659,311.200 78.469,311.200 78.579 M314.000 80.125 C 314.000 80.224,314.661 80.809,315.468 81.425 C 316.276 82.041,316.811 82.341,316.656 82.091 C 316.340 81.579,314.000 79.847,314.000 80.125 M282.575 84.500 L 281.400 85.800 282.700 84.625 C 283.415 83.979,284.000 83.394,284.000 83.325 C 284.000 83.016,283.670 83.288,282.575 84.500 M277.429 93.829 C 277.281 94.415,277.238 94.972,277.332 95.066 C 277.427 95.160,277.624 94.758,277.771 94.171 C 277.919 93.585,277.962 93.028,277.868 92.934 C 277.773 92.840,277.576 93.242,277.429 93.829 M324.909 100.400 C 324.909 101.390,324.987 101.795,325.082 101.300 C 325.178 100.805,325.178 99.995,325.082 99.500 C 324.987 99.005,324.909 99.410,324.909 100.400 M277.448 106.600 C 277.591 107.260,277.866 108.070,278.059 108.400 C 278.284 108.784,278.318 108.568,278.152 107.800 C 278.009 107.140,277.734 106.330,277.541 106.000 C 277.316 105.616,277.282 105.832,277.448 106.600 M323.644 107.244 C 323.398 107.951,323.266 108.600,323.352 108.685 C 323.438 108.771,323.709 108.262,323.956 107.556 C 324.202 106.849,324.334 106.200,324.248 106.115 C 324.162 106.029,323.891 106.538,323.644 107.244 M278.404 109.433 C 278.409 109.899,280.750 114.000,281.012 114.000 C 281.119 114.000,280.634 112.965,279.933 111.700 C 278.453 109.028,278.399 108.947,278.404 109.433 M320.187 114.300 C 319.577 115.125,318.431 116.520,317.639 117.399 L 316.200 118.999 317.662 117.658 C 319.038 116.395,321.858 112.800,321.472 112.800 C 321.375 112.800,320.796 113.475,320.187 114.300 M283.688 117.413 C 284.286 118.043,284.847 118.477,284.935 118.379 C 285.023 118.280,284.533 117.765,283.847 117.234 L 282.600 116.269 283.688 117.413 M310.400 122.200 C 309.850 122.514,309.580 122.772,309.800 122.772 C 310.020 122.772,310.650 122.514,311.200 122.200 C 311.750 121.886,312.020 121.628,311.800 121.628 C 311.580 121.628,310.950 121.886,310.400 122.200 M294.200 123.581 C 294.968 123.929,297.110 124.156,296.767 123.853 C 296.675 123.772,295.880 123.596,295.000 123.462 C 293.885 123.293,293.642 123.329,294.200 123.581 M305.800 123.600 C 304.711 123.877,304.693 123.907,305.600 123.925 C 306.150 123.935,306.960 123.789,307.400 123.600 C 308.386 123.176,307.466 123.176,305.800 123.600 M97.000 276.390 C 96.340 276.552,97.510 276.596,99.600 276.488 C 101.690 276.379,103.475 276.225,103.567 276.145 C 103.872 275.879,98.219 276.090,97.000 276.390 M92.100 277.612 C 90.761 278.151,91.011 278.424,92.400 277.940 C 93.060 277.710,93.600 277.449,93.600 277.361 C 93.600 277.124,93.113 277.205,92.100 277.612 M108.400 277.533 C 108.730 277.736,109.450 278.024,110.000 278.171 C 110.695 278.357,110.817 278.325,110.400 278.067 C 110.070 277.864,109.350 277.576,108.800 277.429 C 108.105 277.243,107.983 277.275,108.400 277.533 M111.200 278.579 C 111.200 278.689,111.740 279.059,112.400 279.400 C 113.060 279.741,113.600 279.931,113.600 279.821 C 113.600 279.711,113.060 279.341,112.400 279.000 C 111.740 278.659,111.200 278.469,111.200 278.579 M114.000 280.125 C 114.000 280.224,114.661 280.809,115.468 281.425 C 116.276 282.041,116.811 282.341,116.656 282.091 C 116.340 281.579,114.000 279.847,114.000 280.125 M82.575 284.500 L 81.400 285.800 82.700 284.625 C 83.912 283.530,84.184 283.200,83.875 283.200 C 83.806 283.200,83.221 283.785,82.575 284.500 M77.429 293.829 C 77.281 294.415,77.238 294.972,77.332 295.066 C 77.427 295.160,77.624 294.758,77.771 294.171 C 77.919 293.585,77.962 293.028,77.868 292.934 C 77.773 292.840,77.576 293.242,77.429 293.829 M124.909 300.400 C 124.909 301.390,124.987 301.795,125.082 301.300 C 125.178 300.805,125.178 299.995,125.082 299.500 C 124.987 299.005,124.909 299.410,124.909 300.400 M77.448 306.600 C 77.591 307.260,77.866 308.070,78.059 308.400 C 78.284 308.784,78.318 308.568,78.152 307.800 C 78.009 307.140,77.734 306.330,77.541 306.000 C 77.316 305.616,77.282 305.832,77.448 306.600 M123.644 307.244 C 123.398 307.951,123.266 308.600,123.352 308.685 C 123.438 308.771,123.709 308.262,123.956 307.556 C 124.202 306.849,124.334 306.200,124.248 306.115 C 124.162 306.029,123.891 306.538,123.644 307.244 M78.404 309.433 C 78.409 309.899,80.750 314.000,81.012 314.000 C 81.119 314.000,80.634 312.965,79.933 311.700 C 78.453 309.028,78.399 308.947,78.404 309.433 M120.187 314.300 C 119.577 315.125,118.431 316.520,117.639 317.399 L 116.200 318.999 117.662 317.658 C 119.038 316.395,121.858 312.800,121.472 312.800 C 121.375 312.800,120.796 313.475,120.187 314.300 M83.688 317.413 C 84.286 318.043,84.847 318.477,84.935 318.379 C 85.023 318.280,84.533 317.765,83.847 317.234 L 82.600 316.269 83.688 317.413 M110.400 322.200 C 109.850 322.514,109.580 322.772,109.800 322.772 C 110.020 322.772,110.650 322.514,111.200 322.200 C 111.750 321.886,112.020 321.628,111.800 321.628 C 111.580 321.628,110.950 321.886,110.400 322.200 M94.200 323.581 C 94.968 323.929,97.110 324.156,96.767 323.853 C 96.675 323.772,95.880 323.596,95.000 323.462 C 93.885 323.293,93.642 323.329,94.200 323.581 M105.800 323.600 C 104.711 323.877,104.693 323.907,105.600 323.925 C 106.150 323.935,106.960 323.789,107.400 323.600 C 108.386 323.176,107.466 323.176,105.800 323.600 " stroke="none" fill="#e47c7c" fill-rule="evenodd"></path><path id="path3" d="M283.381 83.300 L 281.800 85.000 283.500 83.419 C 285.081 81.948,285.384 81.600,285.081 81.600 C 285.016 81.600,284.251 82.365,283.381 83.300 M324.893 97.600 C 324.893 98.370,324.975 98.685,325.076 98.300 C 325.176 97.915,325.176 97.285,325.076 96.900 C 324.975 96.515,324.893 96.830,324.893 97.600 M276.540 100.400 C 276.540 102.270,276.609 103.035,276.693 102.100 C 276.777 101.165,276.777 99.635,276.693 98.700 C 276.609 97.765,276.540 98.530,276.540 100.400 M83.381 283.300 L 81.800 285.000 83.500 283.419 C 85.081 281.948,85.384 281.600,85.081 281.600 C 85.016 281.600,84.251 282.365,83.381 283.300 M124.893 297.600 C 124.893 298.370,124.975 298.685,125.076 298.300 C 125.176 297.915,125.176 297.285,125.076 296.900 C 124.975 296.515,124.893 296.830,124.893 297.600 M76.540 300.400 C 76.540 302.270,76.609 303.035,76.693 302.100 C 76.777 301.165,76.777 299.635,76.693 298.700 C 76.609 297.765,76.540 298.530,76.540 300.400 " stroke="none" fill="#e4acac" fill-rule="evenodd"></path><path id="path4" d="M276.600 95.600 C 276.448 96.291,276.407 96.941,276.509 97.042 C 276.611 97.144,276.809 96.653,276.950 95.950 C 277.283 94.283,276.960 93.960,276.600 95.600 M283.583 117.700 C 284.564 118.745,285.419 119.600,285.483 119.600 C 285.784 119.600,285.466 119.241,283.700 117.583 L 281.800 115.800 283.583 117.700 M296.262 124.500 C 296.501 124.887,304.852 124.881,305.463 124.494 C 305.718 124.332,303.710 124.200,301.002 124.200 C 298.294 124.200,296.161 124.335,296.262 124.500 M76.600 295.600 C 76.448 296.291,76.407 296.941,76.509 297.042 C 76.611 297.144,76.809 296.653,76.950 295.950 C 77.283 294.283,76.960 293.960,76.600 295.600 M83.583 317.700 C 84.564 318.745,85.419 319.600,85.483 319.600 C 85.784 319.600,85.466 319.241,83.700 317.583 L 81.800 315.800 83.583 317.700 M96.262 324.500 C 96.501 324.887,104.852 324.881,105.463 324.494 C 105.718 324.332,103.710 324.200,101.002 324.200 C 98.294 324.200,96.161 324.335,96.262 324.500 " stroke="none" fill="#ecd4d4" fill-rule="evenodd"></path></g></svg>