<svg id="svg" version="1.1" xmlns="http://www.w3.org/2000/svg" xmlns:xlink="http://www.w3.org/1999/xlink" width="400" height="400" viewBox="0, 0, 400,400"><g id="svgg"><path id="path0" d="M296.300 76.787 C 277.533 80.215,270.465 104.006,284.227 117.429 C 295.749 128.668,315.479 125.229,322.264 110.800 C 330.670 92.923,315.654 73.251,296.300 76.787 M194.970 176.356 C 176.266 180.381,169.445 202.878,182.818 216.438 C 197.104 230.922,221.754 222.005,223.435 201.745 C 224.758 185.792,210.446 173.026,194.970 176.356 M96.300 276.787 C 77.533 280.215,70.465 304.006,84.227 317.429 C 95.749 328.668,115.479 325.229,122.264 310.800 C 130.670 292.923,115.654 273.251,96.300 276.787 " stroke="none" fill="#2464ec" fill-rule="evenodd"></path><path id="path1" d="M46.600 0.267 C 43.509 0.644,40.176 1.286,39.807 1.574 C 39.583 1.749,38.950 1.998,38.400 2.127 C 36.278 2.624,31.982 4.249,32.204 4.471 C 32.413 4.679,31.090 5.160,30.286 5.168 C 30.113 5.170,29.695 5.448,29.357 5.786 C 29.019 6.124,28.513 6.400,28.233 6.400 C 27.952 6.400,27.307 6.760,26.800 7.200 C 26.293 7.640,25.635 8.000,25.339 8.000 C 25.042 8.000,24.800 8.158,24.800 8.351 C 24.800 8.545,24.273 8.921,23.629 9.188 C 22.985 9.455,22.360 9.927,22.241 10.237 C 22.122 10.546,21.739 10.800,21.389 10.800 C 21.039 10.800,20.864 10.980,21.000 11.200 C 21.136 11.420,21.075 11.600,20.865 11.600 C 19.815 11.600,11.600 19.809,11.600 20.858 C 11.600 21.072,11.420 21.136,11.200 21.000 C 10.980 20.864,10.800 21.039,10.800 21.389 C 10.800 21.739,10.546 22.122,10.237 22.241 C 9.927 22.360,9.455 22.985,9.188 23.629 C 8.921 24.273,8.545 24.800,8.351 24.800 C 8.158 24.800,8.000 25.042,8.000 25.339 C 8.000 25.635,7.651 26.280,7.225 26.772 C 6.798 27.263,6.336 28.179,6.199 28.805 C 6.061 29.432,5.690 30.159,5.374 30.421 C 5.058 30.683,4.800 31.131,4.800 31.416 C 4.800 31.700,4.656 31.993,4.480 32.067 C 4.084 32.232,2.415 36.933,2.126 38.700 C 2.008 39.415,1.731 40.000,1.510 40.000 C 1.288 40.000,1.199 40.351,1.311 40.781 C 1.423 41.210,1.372 41.615,1.196 41.681 C -0.654 42.372,-0.654 357.628,1.196 358.319 C 1.372 358.385,1.423 358.790,1.311 359.219 C 1.199 359.649,1.288 360.000,1.510 360.000 C 1.731 360.000,2.008 360.585,2.126 361.300 C 2.415 363.067,4.084 367.768,4.480 367.933 C 4.656 368.007,4.800 368.300,4.800 368.584 C 4.800 368.869,5.058 369.317,5.374 369.579 C 5.690 369.841,6.061 370.568,6.199 371.195 C 6.336 371.821,6.798 372.737,7.225 373.228 C 7.651 373.720,8.000 374.365,8.000 374.661 C 8.000 374.958,8.158 375.200,8.351 375.200 C 8.545 375.200,8.921 375.727,9.188 376.371 C 9.455 377.015,9.927 377.640,10.237 377.759 C 10.546 377.878,10.800 378.261,10.800 378.611 C 10.800 378.961,10.980 379.136,11.200 379.000 C 11.420 378.864,11.600 378.928,11.600 379.142 C 11.600 379.357,12.005 380.023,12.500 380.622 C 14.402 382.926,21.200 389.357,21.200 388.852 C 21.200 388.718,21.644 389.087,22.188 389.673 C 22.731 390.259,23.541 390.854,23.988 390.996 C 24.434 391.138,24.800 391.422,24.800 391.627 C 24.800 391.832,25.057 392.000,25.371 392.000 C 25.686 392.000,26.181 392.233,26.471 392.517 C 26.762 392.801,27.585 393.273,28.300 393.565 C 29.015 393.858,29.600 394.255,29.600 394.449 C 29.600 394.642,29.735 394.770,29.900 394.734 C 30.460 394.612,32.439 395.295,32.204 395.529 C 31.982 395.751,36.278 397.376,38.400 397.873 C 38.950 398.002,39.580 398.247,39.800 398.418 C 41.513 399.750,42.158 399.756,197.800 399.886 C 357.579 400.020,358.173 400.014,360.154 398.458 C 360.399 398.265,361.050 398.002,361.600 397.873 C 363.925 397.328,368.007 395.740,367.748 395.481 C 367.593 395.326,367.797 395.200,368.202 395.200 C 368.606 395.200,369.221 394.960,369.569 394.666 C 369.916 394.372,370.830 393.885,371.600 393.583 C 372.370 393.281,373.238 392.801,373.529 392.517 C 373.819 392.233,374.314 392.000,374.629 392.000 C 374.943 392.000,375.200 391.832,375.200 391.627 C 375.200 391.422,375.566 391.138,376.012 390.996 C 376.459 390.854,377.269 390.259,377.812 389.673 C 378.356 389.087,378.800 388.726,378.800 388.870 C 378.800 389.187,380.769 387.441,384.113 384.159 C 386.720 381.600,388.386 379.623,388.395 379.076 C 388.398 378.898,388.580 378.864,388.800 379.000 C 389.020 379.136,389.200 378.961,389.200 378.611 C 389.200 378.261,389.454 377.878,389.763 377.759 C 390.073 377.640,390.545 377.015,390.812 376.371 C 391.079 375.727,391.455 375.200,391.649 375.200 C 391.842 375.200,392.000 374.958,392.000 374.661 C 392.000 374.365,392.349 373.720,392.775 373.228 C 393.202 372.737,393.664 371.821,393.801 371.195 C 393.939 370.568,394.310 369.841,394.626 369.579 C 394.942 369.317,395.200 368.869,395.200 368.584 C 395.200 368.300,395.344 368.007,395.520 367.933 C 395.916 367.768,397.585 363.067,397.874 361.300 C 397.992 360.585,398.269 360.000,398.490 360.000 C 398.712 360.000,398.801 359.649,398.689 359.219 C 398.577 358.790,398.628 358.385,398.804 358.319 C 400.654 357.628,400.654 42.372,398.804 41.681 C 398.628 41.615,398.577 41.210,398.689 40.781 C 398.801 40.351,398.712 40.000,398.490 40.000 C 398.269 40.000,397.992 39.415,397.874 38.700 C 397.585 36.933,395.916 32.232,395.520 32.067 C 395.344 31.993,395.200 31.700,395.200 31.416 C 395.200 31.131,394.942 30.683,394.626 30.421 C 394.310 30.159,393.939 29.432,393.801 28.805 C 393.664 28.179,393.202 27.263,392.775 26.772 C 392.349 26.280,392.000 25.635,392.000 25.339 C 392.000 25.042,391.842 24.800,391.649 24.800 C 391.455 24.800,391.079 24.273,390.812 23.629 C 390.545 22.985,390.073 22.360,389.763 22.241 C 389.454 22.122,389.200 21.739,389.200 21.389 C 389.200 21.039,389.020 20.864,388.800 21.000 C 388.580 21.136,388.400 21.072,388.400 20.858 C 388.400 19.768,380.225 11.600,379.135 11.600 C 378.925 11.600,378.864 11.420,379.000 11.200 C 379.136 10.980,378.961 10.800,378.611 10.800 C 378.261 10.800,377.878 10.546,377.759 10.237 C 377.640 9.927,377.015 9.455,376.371 9.188 C 375.727 8.921,375.200 8.545,375.200 8.351 C 375.200 8.158,374.958 8.000,374.661 8.000 C 374.365 8.000,373.707 7.640,373.200 7.200 C 372.693 6.760,372.048 6.400,371.767 6.400 C 371.487 6.400,370.981 6.124,370.643 5.786 C 370.305 5.448,369.931 5.181,369.812 5.193 C 369.212 5.252,367.594 4.673,367.796 4.471 C 368.018 4.249,363.722 2.624,361.600 2.127 C 361.050 1.998,360.401 1.736,360.157 1.544 C 358.217 0.020,357.370 0.013,199.600 0.067 C 116.110 0.096,47.260 0.186,46.600 0.267 M309.400 77.210 C 313.796 78.921,321.200 84.863,321.200 86.680 C 321.200 86.966,321.355 87.200,321.545 87.200 C 321.943 87.200,324.000 91.616,324.000 92.470 C 324.000 92.784,324.225 93.265,324.500 93.540 C 325.160 94.200,325.209 106.413,324.555 107.239 C 324.310 107.547,323.994 108.288,323.851 108.885 C 322.485 114.610,314.061 122.289,307.200 124.063 C 304.800 124.684,297.262 124.956,296.225 124.460 C 295.771 124.242,294.770 123.959,294.000 123.829 C 289.210 123.021,281.923 117.172,279.242 111.982 C 271.684 97.355,279.371 80.359,295.400 76.254 C 297.741 75.655,307.034 76.289,309.400 77.210 M206.478 176.073 C 224.058 180.797,230.055 204.043,217.049 217.049 C 208.891 225.207,195.069 226.458,185.600 219.894 C 181.687 217.181,177.280 210.976,176.073 206.478 C 175.364 203.833,174.974 195.765,175.522 195.072 C 175.728 194.812,176.016 193.933,176.163 193.117 C 176.426 191.653,177.884 187.988,178.357 187.600 C 178.492 187.490,178.870 186.880,179.198 186.245 C 181.296 182.181,188.688 176.875,193.272 176.142 C 194.122 176.006,194.921 175.728,195.047 175.524 C 195.393 174.965,203.869 175.371,206.478 176.073 M109.400 277.210 C 113.796 278.921,121.200 284.863,121.200 286.680 C 121.200 286.966,121.355 287.200,121.545 287.200 C 121.943 287.200,124.000 291.616,124.000 292.470 C 124.000 292.784,124.225 293.265,124.500 293.540 C 125.160 294.200,125.209 306.413,124.555 307.239 C 124.310 307.547,123.994 308.288,123.851 308.885 C 122.485 314.610,114.061 322.289,107.200 324.063 C 104.800 324.684,97.262 324.956,96.225 324.460 C 95.771 324.242,94.770 323.959,94.000 323.829 C 89.210 323.021,81.923 317.172,79.242 311.982 C 71.684 297.355,79.371 280.359,95.400 276.254 C 97.741 275.655,107.034 276.289,109.400 277.210 " stroke="none" fill="#ececec" fill-rule="evenodd"></path><path id="path2" d="M297.023 76.347 C 296.375 76.486,298.075 76.600,300.800 76.600 C 303.525 76.600,305.225 76.486,304.577 76.347 C 303.930 76.208,302.230 76.095,300.800 76.095 C 299.370 76.095,297.670 76.208,297.023 76.347 M308.400 77.533 C 308.730 77.736,309.450 78.024,310.000 78.171 C 310.695 78.357,310.817 78.325,310.400 78.067 C 310.070 77.864,309.350 77.576,308.800 77.429 C 308.105 77.243,307.983 77.275,308.400 77.533 M311.200 78.579 C 311.200 78.689,311.740 79.059,312.400 79.400 C 313.060 79.741,313.600 79.931,313.600 79.821 C 313.600 79.711,313.060 79.341,312.400 79.000 C 311.740 78.659,311.200 78.469,311.200 78.579 M314.000 80.125 C 314.000 80.224,314.661 80.809,315.468 81.425 C 316.276 82.041,316.811 82.341,316.656 82.091 C 316.340 81.579,314.000 79.847,314.000 80.125 M282.575 84.500 L 281.400 85.800 282.700 84.625 C 283.415 83.979,284.000 83.394,284.000 83.325 C 284.000 83.016,283.670 83.288,282.575 84.500 M323.448 92.600 C 323.591 93.260,323.866 94.070,324.059 94.400 C 324.284 94.784,324.318 94.568,324.152 93.800 C 324.009 93.140,323.734 92.330,323.541 92.000 C 323.316 91.616,323.282 91.832,323.448 92.600 M277.429 93.829 C 277.281 94.415,277.238 94.972,277.332 95.066 C 277.427 95.160,277.624 94.758,277.771 94.171 C 277.919 93.585,277.962 93.028,277.868 92.934 C 277.773 92.840,277.576 93.242,277.429 93.829 M324.901 100.200 C 324.905 101.080,324.987 101.393,325.083 100.895 C 325.179 100.398,325.175 99.678,325.075 99.295 C 324.975 98.913,324.896 99.320,324.901 100.200 M277.256 105.600 C 277.256 105.930,277.411 106.560,277.600 107.000 C 277.817 107.504,277.944 107.578,277.944 107.200 C 277.944 106.870,277.789 106.240,277.600 105.800 C 277.383 105.296,277.256 105.222,277.256 105.600 M278.400 109.353 C 278.400 109.782,279.590 112.000,279.821 112.000 C 279.931 112.000,279.723 111.415,279.359 110.700 C 278.617 109.240,278.400 108.936,278.400 109.353 M320.187 114.300 C 319.577 115.125,318.431 116.520,317.639 117.399 L 316.200 118.999 317.662 117.658 C 319.038 116.395,321.858 112.800,321.472 112.800 C 321.375 112.800,320.796 113.475,320.187 114.300 M283.688 117.413 C 284.286 118.043,284.847 118.477,284.935 118.379 C 285.023 118.280,284.533 117.765,283.847 117.234 L 282.600 116.269 283.688 117.413 M310.400 122.200 C 309.850 122.514,309.580 122.772,309.800 122.772 C 310.020 122.772,310.650 122.514,311.200 122.200 C 311.750 121.886,312.020 121.628,311.800 121.628 C 311.580 121.628,310.950 121.886,310.400 122.200 M294.400 123.594 C 294.730 123.811,295.435 123.991,295.967 123.994 C 297.251 124.002,296.925 123.775,295.200 123.458 C 294.215 123.277,293.978 123.318,294.400 123.594 M305.800 123.600 C 304.711 123.877,304.693 123.907,305.600 123.925 C 306.150 123.935,306.960 123.789,307.400 123.600 C 308.386 123.176,307.466 123.176,305.800 123.600 M193.400 176.400 C 192.381 176.838,193.432 176.838,194.800 176.400 C 195.604 176.143,195.643 176.077,195.000 176.068 C 194.560 176.062,193.840 176.211,193.400 176.400 M203.633 176.147 C 203.725 176.228,204.520 176.404,205.400 176.538 C 206.515 176.707,206.758 176.671,206.200 176.419 C 205.432 176.071,203.290 175.844,203.633 176.147 M209.200 177.800 C 209.750 178.114,210.380 178.372,210.600 178.372 C 210.820 178.372,210.550 178.114,210.000 177.800 C 209.450 177.486,208.820 177.228,208.600 177.228 C 208.380 177.228,208.650 177.486,209.200 177.800 M213.800 180.265 C 216.013 182.450,218.810 184.772,217.400 183.255 C 216.520 182.308,215.260 181.159,214.600 180.702 C 213.940 180.245,213.580 180.048,213.800 180.265 M183.970 181.500 L 183.000 182.600 184.200 181.600 C 184.860 181.050,185.475 180.555,185.567 180.500 C 185.658 180.445,185.555 180.400,185.336 180.400 C 185.118 180.400,184.503 180.895,183.970 181.500 M181.201 184.198 C 180.686 184.748,180.339 185.264,180.432 185.346 C 180.524 185.428,181.019 184.978,181.530 184.347 C 182.676 182.935,182.474 182.844,181.201 184.198 M176.200 194.000 C 176.048 194.691,176.007 195.341,176.109 195.442 C 176.211 195.544,176.409 195.053,176.550 194.350 C 176.883 192.683,176.560 192.360,176.200 194.000 M223.400 199.600 C 223.400 202.325,223.514 204.025,223.653 203.377 C 223.792 202.730,223.905 201.030,223.905 199.600 C 223.905 198.170,223.792 196.470,223.653 195.823 C 223.514 195.175,223.400 196.875,223.400 199.600 M176.028 204.433 C 176.044 204.965,176.219 205.760,176.419 206.200 C 176.671 206.758,176.707 206.515,176.538 205.400 C 176.255 203.543,175.987 203.036,176.028 204.433 M222.044 208.044 C 221.798 208.751,221.666 209.400,221.752 209.485 C 221.838 209.571,222.109 209.062,222.356 208.356 C 222.602 207.649,222.734 207.000,222.648 206.915 C 222.562 206.829,222.291 207.338,222.044 208.044 M177.228 208.600 C 177.228 208.820,177.486 209.450,177.800 210.000 C 178.114 210.550,178.372 210.820,178.372 210.600 C 178.372 210.380,178.114 209.750,177.800 209.200 C 177.486 208.650,177.228 208.380,177.228 208.600 M218.626 214.300 C 217.762 215.405,217.693 215.590,218.363 215.004 C 219.165 214.304,220.223 212.800,219.914 212.800 C 219.851 212.800,219.272 213.475,218.626 214.300 M180.739 214.685 C 182.188 216.556,185.364 219.469,186.600 220.061 C 187.040 220.272,186.860 220.046,186.200 219.560 C 185.540 219.074,183.748 217.399,182.217 215.838 C 180.486 214.073,179.927 213.637,180.739 214.685 M207.800 222.214 C 206.800 222.696,206.766 222.751,207.600 222.548 C 208.733 222.271,210.007 221.621,209.400 221.630 C 209.180 221.633,208.460 221.896,207.800 222.214 M195.800 223.610 C 197.019 223.910,202.672 224.121,202.367 223.855 C 202.275 223.775,200.490 223.621,198.400 223.512 C 196.310 223.404,195.140 223.448,195.800 223.610 M97.023 276.347 C 96.375 276.486,98.075 276.600,100.800 276.600 C 103.525 276.600,105.225 276.486,104.577 276.347 C 103.930 276.208,102.230 276.095,100.800 276.095 C 99.370 276.095,97.670 276.208,97.023 276.347 M108.400 277.533 C 108.730 277.736,109.450 278.024,110.000 278.171 C 110.695 278.357,110.817 278.325,110.400 278.067 C 110.070 277.864,109.350 277.576,108.800 277.429 C 108.105 277.243,107.983 277.275,108.400 277.533 M111.200 278.579 C 111.200 278.689,111.740 279.059,112.400 279.400 C 113.060 279.741,113.600 279.931,113.600 279.821 C 113.600 279.711,113.060 279.341,112.400 279.000 C 111.740 278.659,111.200 278.469,111.200 278.579 M114.000 280.125 C 114.000 280.224,114.661 280.809,115.468 281.425 C 116.276 282.041,116.811 282.341,116.656 282.091 C 116.340 281.579,114.000 279.847,114.000 280.125 M82.575 284.500 L 81.400 285.800 82.700 284.625 C 83.912 283.530,84.184 283.200,83.875 283.200 C 83.806 283.200,83.221 283.785,82.575 284.500 M123.448 292.600 C 123.591 293.260,123.866 294.070,124.059 294.400 C 124.284 294.784,124.318 294.568,124.152 293.800 C 124.009 293.140,123.734 292.330,123.541 292.000 C 123.316 291.616,123.282 291.832,123.448 292.600 M77.429 293.829 C 77.281 294.415,77.238 294.972,77.332 295.066 C 77.427 295.160,77.624 294.758,77.771 294.171 C 77.919 293.585,77.962 293.028,77.868 292.934 C 77.773 292.840,77.576 293.242,77.429 293.829 M124.901 300.200 C 124.905 301.080,124.987 301.393,125.083 300.895 C 125.179 300.398,125.175 299.678,125.075 299.295 C 124.975 298.913,124.896 299.320,124.901 300.200 M77.256 305.600 C 77.256 305.930,77.411 306.560,77.600 307.000 C 77.817 307.504,77.944 307.578,77.944 307.200 C 77.944 306.870,77.789 306.240,77.600 305.800 C 77.383 305.296,77.256 305.222,77.256 305.600 M78.400 309.353 C 78.400 309.782,79.590 312.000,79.821 312.000 C 79.931 312.000,79.723 311.415,79.359 310.700 C 78.617 309.240,78.400 308.936,78.400 309.353 M120.187 314.300 C 119.577 315.125,118.431 316.520,117.639 317.399 L 116.200 318.999 117.662 317.658 C 119.038 316.395,121.858 312.800,121.472 312.800 C 121.375 312.800,120.796 313.475,120.187 314.300 M83.688 317.413 C 84.286 318.043,84.847 318.477,84.935 318.379 C 85.023 318.280,84.533 317.765,83.847 317.234 L 82.600 316.269 83.688 317.413 M110.400 322.200 C 109.850 322.514,109.580 322.772,109.800 322.772 C 110.020 322.772,110.650 322.514,111.200 322.200 C 111.750 321.886,112.020 321.628,111.800 321.628 C 111.580 321.628,110.950 321.886,110.400 322.200 M94.400 323.594 C 94.730 323.811,95.435 323.991,95.967 323.994 C 97.251 324.002,96.925 323.775,95.200 323.458 C 94.215 323.277,93.978 323.318,94.400 323.594 M105.800 323.600 C 104.711 323.877,104.693 323.907,105.600 323.925 C 106.150 323.935,106.960 323.789,107.400 323.600 C 108.386 323.176,107.466 323.176,105.800 323.600 " stroke="none" fill="#769cec" fill-rule="evenodd"></path><path id="path3" d="M317.800 83.200 C 318.883 84.300,319.860 85.200,319.970 85.200 C 320.080 85.200,319.283 84.300,318.200 83.200 C 317.117 82.100,316.140 81.200,316.030 81.200 C 315.920 81.200,316.717 82.100,317.800 83.200 M283.200 83.400 C 282.228 84.390,281.523 85.200,281.633 85.200 C 281.743 85.200,282.628 84.390,283.600 83.400 C 284.572 82.410,285.277 81.600,285.167 81.600 C 285.057 81.600,284.172 82.410,283.200 83.400 M324.893 97.600 C 324.893 98.370,324.975 98.685,325.076 98.300 C 325.176 97.915,325.176 97.285,325.076 96.900 C 324.975 96.515,324.893 96.830,324.893 97.600 M276.540 100.400 C 276.540 102.270,276.609 103.035,276.693 102.100 C 276.777 101.165,276.777 99.635,276.693 98.700 C 276.609 97.765,276.540 98.530,276.540 100.400 M324.893 102.800 C 324.893 103.570,324.975 103.885,325.076 103.500 C 325.176 103.115,325.176 102.485,325.076 102.100 C 324.975 101.715,324.893 102.030,324.893 102.800 M182.386 182.700 L 180.200 185.000 182.500 182.814 C 184.637 180.782,184.983 180.400,184.686 180.400 C 184.624 180.400,183.589 181.435,182.386 182.700 M181.600 216.125 C 181.600 216.194,182.185 216.779,182.900 217.425 L 184.200 218.600 183.025 217.300 C 181.930 216.088,181.600 215.816,181.600 216.125 M117.800 283.200 C 118.883 284.300,119.860 285.200,119.970 285.200 C 120.080 285.200,119.283 284.300,118.200 283.200 C 117.117 282.100,116.140 281.200,116.030 281.200 C 115.920 281.200,116.717 282.100,117.800 283.200 M83.200 283.400 C 82.228 284.390,81.523 285.200,81.633 285.200 C 81.743 285.200,82.628 284.390,83.600 283.400 C 84.572 282.410,85.277 281.600,85.167 281.600 C 85.057 281.600,84.172 282.410,83.200 283.400 M124.893 297.600 C 124.893 298.370,124.975 298.685,125.076 298.300 C 125.176 297.915,125.176 297.285,125.076 296.900 C 124.975 296.515,124.893 296.830,124.893 297.600 M76.540 300.400 C 76.540 302.270,76.609 303.035,76.693 302.100 C 76.777 301.165,76.777 299.635,76.693 298.700 C 76.609 297.765,76.540 298.530,76.540 300.400 M124.893 302.800 C 124.893 303.570,124.975 303.885,125.076 303.500 C 125.176 303.115,125.176 302.485,125.076 302.100 C 124.975 301.715,124.893 302.030,124.893 302.800 " stroke="none" fill="#acbcec" fill-rule="evenodd"></path><path id="path4" d="M276.600 95.600 C 276.448 96.291,276.407 96.941,276.509 97.042 C 276.611 97.144,276.809 96.653,276.950 95.950 C 277.283 94.283,276.960 93.960,276.600 95.600 M283.583 117.700 C 284.564 118.745,285.419 119.600,285.483 119.600 C 285.784 119.600,285.466 119.241,283.700 117.583 L 281.800 115.800 283.583 117.700 M296.262 124.500 C 296.501 124.887,304.852 124.881,305.463 124.494 C 305.718 124.332,303.710 124.200,301.002 124.200 C 298.294 124.200,296.161 124.335,296.262 124.500 M195.060 175.500 C 194.958 175.665,196.342 175.752,198.137 175.692 C 203.744 175.507,204.379 175.337,199.724 175.267 C 197.262 175.230,195.163 175.335,195.060 175.500 M175.467 195.067 C 175.103 195.430,175.139 203.684,175.506 204.263 C 175.668 204.518,175.800 202.493,175.800 199.763 C 175.800 197.034,175.785 194.801,175.767 194.801 C 175.748 194.800,175.613 194.920,175.467 195.067 M216.778 217.100 L 215.400 218.600 216.900 217.222 C 218.296 215.938,218.584 215.600,218.278 215.600 C 218.212 215.600,217.537 216.275,216.778 217.100 M76.600 295.600 C 76.448 296.291,76.407 296.941,76.509 297.042 C 76.611 297.144,76.809 296.653,76.950 295.950 C 77.283 294.283,76.960 293.960,76.600 295.600 M83.583 317.700 C 84.564 318.745,85.419 319.600,85.483 319.600 C 85.784 319.600,85.466 319.241,83.700 317.583 L 81.800 315.800 83.583 317.700 M96.262 324.500 C 96.501 324.887,104.852 324.881,105.463 324.494 C 105.718 324.332,103.710 324.200,101.002 324.200 C 98.294 324.200,96.161 324.335,96.262 324.500 " stroke="none" fill="#d4dcec" fill-rule="evenodd"></path></g></svg>